# xmcd
#
# Track frame offsets:
#	150
#	12567
#	22932
#	33482
#	45457
#	56445
#	67192
#	78410
#	90720
#	107160
#	119042
#	135612
#	147047
#	156277
#	167012
#
# Disc length: 2421 seconds
#
# Revision: 0
# Processed by: cddbd v1.5.1PL0 Copyright (c) Steve Scherf et al.
# Submitted via: dBpowerAMP V4.0
#
DISCID=ca09730f
DTITLE=Various Artist - The Best of The Golden West [CD2]
DYEAR=1900
DGENRE=Country
TTITLE0=Johnny Preston-Running Bear
TTITLE1=Ferlin Husky-Wings Of A Dove
TTITLE2=Marty Robbins-Billy The Kid
TTITLE3=Johnny Cash-Ring Of Fire
TTITLE4=Grand Junction-Sixteen Tons
TTITLE5=Faron Young-Riverboat
TTITLE6=Roger Miller-King Of The Road
TTITLE7=Kenny Rogers-Ruben James
TTITLE8=Johnny Cash-The Baron
TTITLE9=Frankie Lane-Mule Train
TTITLE10=Marty Robbins-The Battle Of The Alamo
TTITLE11=Johnny Horton-The Battle Of New Orleans
TTITLE12=Grand Junction-Dueling Banjo's
TTITLE13=Frankie Laine-The Hanging Tree
TTITLE14=Starland Orchestra-Once Upon A Time In THe West
EXTD=
EXTT0=
EXTT1=
EXTT2=
EXTT3=
EXTT4=
EXTT5=
EXTT6=
EXTT7=
EXTT8=
EXTT9=
EXTT10=
EXTT11=
EXTT12=
EXTT13=
EXTT14=
PLAYORDER=
